<svg id="Camada_1" xmlns="http://www.w3.org/2000/svg" viewBox="0 0 1020 355"><style>.st0{fill:#e33636}</style><path class="st0" d="M192.8 241.9v31.7c0 26.8-14.5 46.9-39.5 46.9-24.4 0-41-17.1-41-47.2V139.1c0-26.2 15.1-47.9 40.4-47.9 25.2 0 40.4 19.7 40.4 47.5v20.7h-14.9v-20.7c0-17.8-7.4-32.3-25.3-32.3-15.2 0-25 13.6-25 32.7v134.2c0 19.1 8.6 31.7 25.3 31.7 14.9 0 24.4-9.7 24.4-31.4v-16.8h-30.3v-14.9h45.5zm22.2 39.8v-107c0-20 11.6-38.5 33.9-38.5 20.5 0 33 17.8 33 38.5v106.7c0 20-11 39.1-33 39.1-21.1 0-33.9-17.5-33.9-38.8m15.8-107v107c0 12.3 5.9 23 18.1 23 12.2 0 17.5-10.3 17.5-23.3V174.7c0-11.6-5.1-23.3-17.5-23.3-12.2 0-18.1 10.3-18.1 23.3m75.5 107v-107c0-20 11.6-38.5 33.9-38.5 20.5 0 33 17.8 33 38.5v106.7c0 20-11 39.1-33 39.1-21.2 0-33.9-17.5-33.9-38.8m15.7-107v107c0 12.3 5.9 23 18.1 23s17.5-10.3 17.5-23.3V174.7c0-11.6-5-23.3-17.5-23.3-12.2 0-18.1 10.3-18.1 23.3m144.4 107c0 35.6-26.4 36.9-34.5 36.9h-32.1V137.8h32.1c16.9 0 34.5 5.5 34.5 37.2v106.7zM451.2 175c-.6-19.4-8.6-22-19.3-22h-16.4v149.7h16.4c8.9 0 19.3-3.9 19.3-21V175zm106.1-67.9h-28.8v211.4h-15.2V107.1h-29.1V92.2h73.1zm85.3 211.4h-15.7v-33c0-7.8-4.5-13.3-12.5-13.3H593v46.2h-16V137.8h31.5c15.4 0 33 10 33 37.5v59.2c0 10.4-2.4 21.3-11.3 27.8 8.6 4.9 12.5 13.3 12.5 23.3v32.9h-.1zM593 257.1h15.4c7.7 0 17.8-8.1 17.8-22.6v-59.2c0-13.9-7.1-22.3-17.8-22.3H593v104.1zm141.1 24.3c0 20-11 39.1-33.6 39.1-20.5 0-33.3-17.5-33.3-39.1V137.8H683v143.6c0 12 5.1 23.9 17.5 23.9 13.7 0 18.1-10.7 18.1-23.9V137.8H734l.1 143.6zm25.8-.4V175.3c0-23.3 13.4-39.1 33.9-39.1 20.2 0 33 14.6 33 39.1v17.8h-14.9v-17.8c0-14.2-6-23.9-17.8-23.9-10.4 0-18.4 8.1-18.4 23.9V281c0 13.9 6.2 23.6 18.4 23.6s17.5-7.8 17.5-23.3v-16.5h15.5v16.5c0 21-10.4 39.1-33 39.1-21.4.1-34.2-15.8-34.2-39.4m120.3-32l46.9 69.5h-18.7l-23.8-33.3-12.8-20.4-3.6 7.4v46.2h-15.7V137.8h15.7V196l-1.5 50.1 18.7-49.8c7.4-19.1 15.8-39.8 23.2-58.5h16.3L880.2 249z"/><path class="st0" d="M945.7 150c-3.1 0-5.9-2.3-6.6-5.6-.9-4 1.3-8 5-9 47.5-12.8 48.1-23.4 48.1-23.5 0-.2-1.5-21.4-134.8-40-90.5-12.6-210.9-19.6-339-19.6s-248.5 7-339 19.6C46 90.4 44.5 111.7 44.5 111.9c0 .1.5 9.7 42.2 21.8 3.6 1.1 5.8 5.1 4.8 9.1s-4.7 6.3-8.4 5.3c-36.2-10.5-52.3-21.7-52.3-36.2 0-14.7 15.2-36.4 146.8-54.8 91.1-12.7 212.1-19.7 340.7-19.7 128.7 0 249.7 7 340.7 19.7 131.5 18.3 146.8 40 146.8 54.8 0 15.3-18 27-58.4 37.9-.5.1-1.1.2-1.7.2"/></svg>