<svg width="226" height="130" viewBox="0 0 226 130" fill="none" xmlns="http://www.w3.org/2000/svg">
<path d="M31.1755 64.051L28.794 66.1267C28.4275 66.4325 27.9395 66.4325 27.5729 66.1874C19.6953 60.5699 18.1684 55.6225 17.0687 49.6384L16.3963 45.7906C16.3963 45.4848 16.0905 45.3026 15.8476 45.3026H10.2907C9.98491 45.3026 9.74203 45.4848 9.68132 45.7906L9.1326 48.8445C9.07189 49.2718 8.64462 49.6384 8.21734 49.6384H3.76018C3.3329 49.6384 3.02707 49.2718 3.08779 48.8445L9.80501 7.92954C9.86572 7.50226 10.293 7.13571 10.781 7.13571H15.3011C15.7891 7.13571 16.2164 7.50226 16.2793 7.92954L23.118 49.4562C23.9726 54.1585 25.4995 58.5549 31.1171 62.4634C31.6658 62.8299 31.6658 63.6238 31.1778 64.051H31.1755ZM15.2989 39.3815L13.0388 21.2448L10.7787 39.3815C10.718 39.6873 11.0239 40.0539 11.3904 40.0539H14.7502C15.1167 40.0539 15.3618 39.6873 15.2989 39.3815ZM43.2247 15.9511H47.6819C48.1091 15.9511 48.4757 16.2569 48.4757 16.7449V49.6001C48.4757 53.6907 45.1159 57.0505 41.0253 57.0505H36.0779C31.9873 57.0505 28.6276 53.6907 28.6276 49.6001V16.7449C28.6276 16.2569 28.9942 15.9511 29.4214 15.9511H33.8786C34.3059 15.9511 34.6724 16.2569 34.6724 16.7449V49.1121C34.6724 50.5784 35.8935 51.7995 37.3598 51.7995H39.6805C41.2075 51.7995 42.4286 50.5784 42.4286 49.1121V16.7449C42.4286 16.2569 42.7344 15.9511 43.2224 15.9511H43.2247ZM91.671 5.69197C92.2197 5.50982 92.7099 5.87412 92.7099 6.42508V10.0277C92.7099 10.3335 92.5278 10.6394 92.2827 10.7608C82.2057 14.7907 71.7037 13.6303 61.1388 11.9212C60.5294 11.7998 60.0391 12.2878 60.0391 12.8365V57.0505C60.0391 57.8443 59.4297 58.456 58.6336 58.456H55.4583C54.6644 58.456 53.992 57.7836 53.992 56.9898V12.3485C53.992 11.4332 53.3196 10.6394 52.4044 10.455C42.694 8.92802 32.9858 7.95203 23.3361 11.0666C22.8481 11.1881 22.3579 10.8215 22.3579 10.3335V6.73092C22.3579 6.36436 22.603 6.05853 22.9066 5.93709C49.3505 -1.94052 68.7083 14.6085 91.6687 5.69197H91.671ZM80.1503 19.2276H84.5467C85.0347 19.2276 85.4013 19.5537 85.4013 21.382V57.7431C85.4013 58.5145 85.0347 58.926 84.5467 58.926H80.1503C79.723 58.926 79.3564 58.5594 79.3564 58.1322V42.8852C79.3564 41.7248 78.4412 40.8702 77.3415 40.8702H73.6175C72.5178 40.8702 71.6025 41.7248 71.6025 42.8852V58.1322C71.6025 58.5594 71.236 58.926 70.8087 58.926H66.3515C65.9243 58.926 65.5577 58.5594 65.5577 56.2611V20.0866C65.5577 19.5874 65.9243 19.2298 66.3515 19.2298H70.8087C71.236 19.2298 71.6025 19.5964 71.6025 20.0237V33.5413C71.6025 34.7017 72.5178 35.5563 73.6175 35.5563H77.3415C78.4412 35.5563 79.3564 34.7017 79.3564 33.5413V20.0237C79.3564 19.5964 79.723 19.2298 80.1503 19.2298V19.2276ZM96.3328 23.687V33.9461C96.3328 35.1065 97.248 35.9611 98.3477 35.9611H102.501C102.929 35.9611 103.356 36.3883 103.356 36.8156V40.3575C103.356 40.8455 102.929 41.2728 102.501 41.2728H98.3477C97.248 41.2728 96.3328 42.1273 96.3328 43.2877V51.6533C96.3328 52.753 97.248 53.6683 98.3477 53.6683H105.186C105.674 53.6683 106.102 54.0348 106.102 54.5228V58.0647C106.102 58.5527 105.674 58.9192 105.186 58.9192H91.8734C90.9581 58.9192 90.2857 58.2468 90.2857 57.3316V17.9435C90.2857 17.089 90.9581 16.4166 91.8734 16.4166H105.186C105.674 16.4166 106.102 16.7831 106.102 17.2711V20.7523C106.102 21.2403 105.674 21.6676 105.186 21.6676H98.3477C97.248 21.6676 96.3328 22.5828 96.3328 23.6825V23.687ZM173.622 1.94993C174.171 1.76778 174.661 2.13209 174.661 2.68305V6.28565C174.661 6.59149 174.479 6.89734 174.234 7.01877C164.157 11.0487 153.655 9.88826 143.09 8.17916C142.481 8.05772 141.991 8.54571 141.991 9.09443V53.3084C141.991 54.1023 141.381 54.714 140.585 54.714H137.41C136.616 54.714 135.943 54.0416 135.943 53.2477V8.60644C135.943 7.69117 135.271 6.89733 134.356 6.71293C124.645 5.18598 114.937 4.20999 105.288 7.32461C104.8 7.44604 104.309 7.07949 104.309 6.5915V2.98889C104.309 2.62233 104.554 2.31649 104.858 2.19505C131.3 -5.68256 150.66 10.8665 173.62 1.94993H173.622ZM148.301 16.8888H152.758C153.185 16.8888 153.552 17.2554 153.552 17.6827V58.5977C153.552 59.0249 153.185 59.3915 152.758 59.3915H148.301C147.873 59.3915 147.507 59.0249 147.507 58.5977V17.6827C147.507 17.2554 147.873 16.8888 148.301 16.8888ZM173.256 44.9811H177.043C177.715 44.9811 178.203 45.4691 178.203 46.0807V50.5379C178.203 54.6285 174.844 57.9882 170.753 57.9882H165.806C161.715 57.9882 158.355 54.6285 158.355 50.5379V22.9359C158.355 18.7823 161.715 15.4856 165.806 15.4856H170.753C174.844 15.4856 178.203 18.7823 178.203 22.9359V27.0895C178.203 27.7011 177.715 28.1891 177.043 28.1891H173.256C172.644 28.1891 172.156 27.7011 172.156 27.0895V23.4261C172.156 21.8992 170.935 20.6781 169.408 20.6781H167.087C165.621 20.6781 164.4 21.8992 164.4 23.4261V50.0521C164.4 51.5184 165.621 52.7395 167.087 52.7395H169.408C170.935 52.7395 172.156 51.5184 172.156 50.0521V46.083C172.156 45.4713 172.644 44.9833 173.256 44.9833V44.9811ZM130.868 13.4706V54.3856C130.868 54.8129 130.501 55.1795 130.074 55.1795H126.775C126.103 55.1795 125.554 54.7522 125.309 54.0798L118.104 35.4551C117.921 34.9064 117.065 35.0885 117.065 35.6372V54.3856C117.065 54.8129 116.698 55.1795 116.271 55.1795H111.811C111.384 55.1795 111.018 54.8129 111.018 54.3856V13.4706C111.018 13.0434 111.384 12.6768 111.811 12.6768H115.232C115.904 12.6768 116.514 13.1041 116.696 13.7157L123.719 34.5398C123.962 35.0885 124.819 34.9671 124.819 34.3577V13.4729C124.819 13.0456 125.185 12.679 125.612 12.679H130.009C130.497 12.679 130.863 13.0456 130.863 13.4729L130.868 13.4706ZM70.233 62.4836C70.7817 62.3015 71.2719 62.6658 71.2719 63.2167V66.8193C71.2719 67.1252 71.0898 67.431 70.8447 67.5525C60.7677 71.5823 50.2657 70.4219 39.7008 68.7128C39.0914 68.5914 38.6011 69.0794 38.6011 69.6281V113.842C38.6011 114.636 37.9917 115.248 37.1956 115.248H34.0203C33.2264 115.248 32.554 114.575 32.554 113.781V69.1401C32.554 68.2249 31.8816 67.431 30.9664 67.2466C21.256 65.7197 11.5478 64.7437 1.89816 67.8583C1.41017 67.9797 0.919922 67.6132 0.919922 67.1252V63.5226C0.919922 63.156 1.16504 62.8502 1.46863 62.7287C27.9102 54.8511 47.2703 71.4002 70.2308 62.4836H70.233ZM73.948 128.716C73.948 129.204 73.5208 129.631 73.0328 129.692C58.6808 130.67 61.674 117.845 57.0932 107.219C56.6052 106.18 55.5662 105.51 54.4665 105.51H51.1698C50.6818 105.51 50.3152 105.877 50.3152 106.365V118.639C50.3152 119.066 49.9487 119.433 49.5214 119.433H45.0642C44.6369 119.433 44.2704 119.066 44.2704 118.639V77.7846C44.2704 77.2966 44.6369 76.93 45.0642 76.93H56.911C60.8802 76.93 64.1162 80.1661 64.1162 84.1352V98.3028C64.1162 100.136 63.4438 101.723 62.3441 103.005C61.7325 103.677 61.611 104.653 61.9776 105.508C66.1919 116.134 64.3591 125.66 72.9091 125.172C73.4578 125.111 73.8873 125.538 73.8873 126.087L73.948 128.714V128.716ZM51.1698 100.259H56.0542C57.1539 100.259 58.0691 99.344 58.0691 98.2443V84.1982C58.0691 83.0985 57.1539 82.1833 56.0542 82.1833H51.1698C50.6818 82.1833 50.3152 82.6105 50.3152 83.0378V99.4047C50.3152 99.8927 50.6818 100.259 51.1698 100.259ZM88.9094 117.074C88.9702 117.501 88.6643 117.868 88.237 117.868H83.8406C83.3526 117.868 82.9253 117.501 82.8646 117.074L82.4981 114.998C82.3766 114.143 81.6435 113.532 80.726 113.532H77.1841C76.3295 113.532 75.5964 114.143 75.412 114.998L75.0455 117.074C74.9847 117.501 74.5575 117.868 74.1302 117.868H69.673C69.2458 117.868 68.9399 117.501 69.0006 117.074L75.7179 76.1587C75.7786 75.7314 76.2059 75.3648 76.6939 75.3648H81.214C81.702 75.3648 82.1292 75.7314 82.1922 76.1587L88.9094 117.074ZM77.3055 108.281H80.6653C81.0318 108.281 81.2769 107.914 81.214 107.608L79.3812 92.5863C79.3205 92.159 78.6481 92.159 78.5874 92.5863L76.6939 107.608C76.6331 107.914 76.939 108.281 77.3055 108.281ZM93.0787 68.9197H97.5359C97.9632 68.9197 98.3297 69.2863 98.3297 69.7136V110.629C98.3297 111.056 97.9632 111.422 97.5359 111.422H93.0787C92.6515 111.422 92.2849 111.056 92.2849 110.629V69.7136C92.2849 69.2863 92.6515 68.9197 93.0787 68.9197ZM139.269 111.928V115.104C139.269 115.531 138.964 115.958 138.476 116.082C122.475 119.99 114.719 108.144 105.742 106.617C104.703 106.435 103.909 105.578 103.909 104.541V65.5173C103.909 64.602 104.581 63.9296 105.497 63.9296H108.305C109.221 63.9296 109.954 64.6627 109.954 65.578V100.021C109.954 100.875 110.442 101.73 111.299 102.036C120.764 105.823 125.527 114.188 137.985 111.013C138.658 110.831 139.267 111.258 139.267 111.928H139.269ZM130.996 67.7908C128.493 67.7908 127.576 69.6843 127.576 71.9444C127.576 80.4337 141.928 82.5701 141.928 94.9678C141.928 101.442 138.204 106.266 131.423 106.266C125.927 106.266 121.531 101.809 121.531 96.3733C121.531 95.458 121.164 93.5645 122.63 93.5645H126.417C128.983 93.5645 125.563 101.015 131.426 101.015C134.846 101.015 135.946 97.8395 135.946 94.9071C135.946 85.7476 121.533 83.8541 121.533 72.0681C121.533 66.8778 125.808 62.5421 130.998 62.5421C136.189 62.5421 140.524 66.8171 140.524 72.0681C140.524 72.9226 140.706 74.3889 139.425 74.3889H135.577C133.135 74.3889 136.31 67.7931 130.996 67.7931V67.7908Z" fill="#484848"/>
<path d="M147.693 79.4544V66.5169H148.919V79.4544H147.693ZM155.71 75.6651V66.5169H156.936V79.4544H155.904L152.191 70.3444V79.4544H150.965V66.5169H152L155.713 75.6651H155.71ZM165.52 67.7785V79.4544H164.256V67.7785H161.96V66.5169H167.816V67.7785H165.52ZM170.116 72.3728H173.485V66.5169H174.711V79.4544H173.485V73.5984H170.116V79.4544H168.855V66.5169H170.116V72.3728ZM178.01 67.7785V72.3728H181.417V73.5984H178.01V78.231H182.375V79.4566H176.748V66.5192H182.336V67.7807H178.012L178.01 67.7785ZM188.948 70.4973V79.4544H187.722V66.5169H188.755L191.664 74.1719L194.572 66.5169H195.645V79.4544H194.381V70.4973L192.162 76.3532H191.204L188.946 70.4973H188.948ZM202.553 67.3962C203.089 67.9314 203.397 68.6578 203.397 69.4629V76.5444C203.397 77.3112 203.091 78.0376 202.553 78.611C202.018 79.1463 201.251 79.4544 200.487 79.4544C199.722 79.4544 198.955 79.1485 198.42 78.611C197.885 78.0376 197.538 77.309 197.538 76.5444V69.4629C197.538 68.66 197.882 67.9314 198.42 67.3962C198.957 66.8227 199.722 66.5146 200.487 66.5146C201.251 66.5146 202.018 66.8205 202.553 67.3962ZM200.487 67.7785C200.028 67.7785 199.605 67.9314 199.299 68.2777C198.955 68.5836 198.802 69.0063 198.802 69.4651V76.5466C198.802 76.9672 198.955 77.3899 199.299 77.734C199.605 78.0398 200.028 78.2332 200.487 78.2332C200.945 78.2332 201.368 78.0421 201.674 77.734C201.98 77.3899 202.171 76.9672 202.171 76.5466V69.4651C202.171 69.0063 201.98 68.5836 201.674 68.2777C201.368 67.9337 200.945 67.7785 200.487 67.7785ZM210.752 76.5444C210.752 77.3112 210.447 78.0376 209.871 78.611C209.336 79.1463 208.609 79.4544 207.804 79.4544C206.999 79.4544 206.311 79.1485 205.738 78.611C205.2 78.0376 204.894 77.309 204.894 76.5444V76.0856H206.12V76.5444C206.12 76.9649 206.311 77.3877 206.617 77.7318C206.961 78.0376 207.384 78.231 207.804 78.231C208.263 78.231 208.686 78.0398 209.03 77.7318C209.336 77.3877 209.527 76.9649 209.527 76.5444V76.0092C209.527 75.5099 209.336 75.0512 209.03 74.6689C208.686 74.1696 208.112 73.7873 207.575 73.5579C206.808 73.2139 206.12 72.7146 205.623 72.0647C205.126 71.4508 204.894 70.7627 204.894 69.9598V69.4629C204.894 68.66 205.2 67.9314 205.738 67.3962C206.313 66.8227 207.04 66.5146 207.804 66.5146C208.607 66.5146 209.336 66.8205 209.871 67.3962C210.444 67.9314 210.752 68.6578 210.752 69.4629V69.8834H209.527V69.4629C209.527 69.0041 209.336 68.5813 209.03 68.2755C208.686 67.9314 208.263 67.7762 207.804 67.7762C207.381 67.7762 206.961 67.9292 206.617 68.2755C206.311 68.5813 206.118 69.0041 206.118 69.4629V69.9598C206.118 70.4591 206.271 70.9178 206.576 71.3384C206.959 71.7971 207.494 72.1817 208.07 72.4111C208.798 72.7551 209.525 73.2544 210.022 73.9043C210.48 74.5182 210.75 75.2446 210.75 76.0092V76.5444H210.752ZM214.94 67.7785V79.4544H213.676V67.7785H211.38V66.5169H217.236V67.7785H214.94ZM152.441 93.7636V84.6154H153.666V97.5528H152.634L148.921 88.4429V97.5528H147.696V84.6154H148.73L152.443 93.7636H152.441ZM156.761 94.9869L156.111 97.5506H154.809L158.254 84.6131H159.288L162.693 97.5506H161.429L160.741 94.9869H156.761ZM157.105 93.6489H160.397L158.751 87.4849L157.105 93.6489ZM165.335 85.877V97.5528H164.072V85.877H161.775V84.6154H167.631V85.877H165.335ZM174.454 84.6131V94.6429C174.454 95.4097 174.11 96.1361 173.573 96.7095C173.038 97.2448 172.271 97.5528 171.506 97.5528C170.742 97.5528 169.975 97.247 169.439 96.7095C168.904 96.1361 168.596 95.4075 168.596 94.6429V84.6131H169.822V94.6429C169.822 95.0634 170.013 95.4862 170.319 95.8303C170.625 96.1361 171.047 96.3295 171.506 96.3295C171.965 96.3295 172.388 96.1383 172.693 95.8303C173.038 95.4862 173.19 95.0634 173.19 94.6429V84.6131H174.457H174.454ZM182.537 97.5528H181.196L178.9 91.6969H177.636V97.5528H176.411V84.6154H179.359C180.124 84.6154 180.852 84.9212 181.387 85.4587C181.923 86.0321 182.231 86.7608 182.231 87.5254V88.8274C182.231 89.5943 181.925 90.3206 181.387 90.8559C181.043 91.1999 180.661 91.4675 180.2 91.5822L182.534 97.5528H182.537ZM177.639 90.4713H179.361C179.82 90.4713 180.205 90.2802 180.508 89.9721C180.852 89.6662 181.007 89.2435 181.007 88.8252V87.5231C181.007 87.0644 180.854 86.6416 180.508 86.3357C180.202 86.0299 179.82 85.877 179.361 85.877H177.639V90.4713ZM185.057 94.9869L184.408 97.5506H183.106L186.551 84.6131H187.585L190.99 97.5506H189.726L189.038 94.9869H185.057ZM185.402 93.6489H188.694L187.048 87.4849L185.402 93.6489ZM197.118 96.3272V97.5528H192.141V84.6154H193.403V96.3272H197.116H197.118ZM206.415 88.5958L204.809 97.5911H203.698L201.364 84.6154H202.627L204.235 93.6107L205.843 84.6154H206.954L208.562 93.6107L210.17 84.6154H211.434L209.1 97.5911H208.027L206.419 88.5958H206.415ZM212.835 94.9869L212.185 97.5506H210.883L214.328 84.6131H215.363L218.767 97.5506H217.503L216.815 94.9869H212.835ZM213.179 93.6489H216.471L214.825 87.4849L213.179 93.6489ZM221.626 91.1977V97.5506H220.362V91.1977L217.683 84.6131H219.024L221.014 89.4368L222.966 84.6131H224.306L221.626 91.1977ZM224.614 97.5528V96.3272H225.802V97.5528H224.614Z" fill="#484848"/>
<path d="M152.72 102.48H154.564L151.771 109.343V115.885H150.039V109.343L147.246 102.48H149.09L150.923 106.919L152.72 102.48ZM160.078 103.431C160.663 104.018 160.986 104.809 160.986 105.662V112.743C160.986 113.555 160.665 114.344 160.08 114.97C159.495 115.554 158.681 115.887 157.843 115.887C157.004 115.887 156.19 115.554 155.609 114.976C154.996 114.32 154.66 113.528 154.66 112.743V105.662C154.66 104.834 154.998 104.04 155.609 103.429C156.172 102.828 156.988 102.48 157.843 102.48C158.697 102.48 159.511 102.826 160.078 103.431ZM158.863 113.764C159.136 113.456 159.291 113.092 159.291 112.743V105.662C159.291 105.279 159.138 104.915 158.863 104.641C158.544 104.283 158.133 104.211 157.843 104.211C157.552 104.211 157.139 104.283 156.831 104.632C156.464 104.958 156.392 105.372 156.392 105.664V112.745C156.392 113.132 156.54 113.488 156.822 113.766C157.377 114.322 158.31 114.322 158.866 113.766L158.863 113.764ZM166.923 112.741C166.923 113.128 166.775 113.483 166.494 113.762C165.938 114.317 164.996 114.306 164.461 113.771C164.177 113.452 164.022 113.085 164.022 112.739V102.475H162.329V112.739C162.329 113.551 162.65 114.34 163.24 114.972C163.82 115.55 164.632 115.883 165.473 115.883C166.314 115.883 167.126 115.55 167.71 114.965C168.32 114.313 168.655 113.524 168.655 112.739V102.475H166.921V112.739L166.923 112.741ZM174.482 109.826L176.85 115.885H175.008L172.712 110.029H171.841V115.885H170.148V102.48H173.33C174.158 102.48 174.938 102.803 175.523 103.39C176.112 104.022 176.433 104.812 176.433 105.623V106.926C176.433 107.753 176.11 108.533 175.523 109.118C175.183 109.458 174.841 109.692 174.479 109.826H174.482ZM171.841 108.336H173.33C173.699 108.336 174.027 108.192 174.313 107.906C174.594 107.654 174.742 107.31 174.742 106.923V105.621C174.742 105.329 174.67 104.917 174.322 104.609C174.05 104.337 173.728 104.209 173.33 104.209H171.841V108.336ZM189.839 102.48L188.429 110.38L187.016 102.48H185.514L184.104 110.38L182.692 102.48H180.954L183.373 115.923H184.876L186.286 108.023L187.698 115.923H189.162L191.582 102.48H189.843H189.839ZM195.409 102.48L198.937 115.885H197.192L196.504 113.321H192.884L192.234 115.885H190.446L194.015 102.48H195.409ZM194.694 106.489L193.351 111.513H196.034L194.694 106.489ZM202.675 102.48L200.878 106.919L199.045 102.48H197.201L199.994 109.343V115.885H201.726V109.343L204.519 102.48H202.675ZM204.249 114.191V115.885H205.904V114.191H204.249Z" fill="#484848"/>
</svg>
