<svg width="823" height="394" viewBox="0 0 823 394" fill="none" xmlns="http://www.w3.org/2000/svg">
<path fill-rule="evenodd" clip-rule="evenodd" d="M808.64 142.99C815.544 142.99 821.14 148.586 821.14 155.49V317.41C821.14 324.314 815.544 329.91 808.64 329.91C801.736 329.91 796.14 324.314 796.14 317.41V155.49C796.14 148.586 801.736 142.99 808.64 142.99Z" fill="#353CDD"/>
<path fill-rule="evenodd" clip-rule="evenodd" d="M279.74 0C286.644 0 292.24 5.59644 292.24 12.5V236.41C292.24 262.915 300.837 288.706 316.74 309.91C320.882 315.433 319.763 323.268 314.24 327.41C308.717 331.552 300.882 330.433 296.74 324.91C277.591 299.378 267.24 268.325 267.24 236.41V12.5C267.24 5.59644 272.836 0 279.74 0Z" fill="#353CDD"/>
<path fill-rule="evenodd" clip-rule="evenodd" d="M754.67 223.95C761.574 223.95 767.17 229.546 767.17 236.45V317.41C767.17 324.314 761.574 329.91 754.67 329.91C747.766 329.91 742.17 324.314 742.17 317.41V236.45C742.17 229.546 747.766 223.95 754.67 223.95Z" fill="#353CDD"/>
<path fill-rule="evenodd" clip-rule="evenodd" d="M228.4 142.99C235.304 142.99 240.9 148.586 240.9 155.49V317.41C240.9 324.314 235.304 329.91 228.4 329.91C221.496 329.91 215.9 324.314 215.9 317.41V155.49C215.9 148.586 221.496 142.99 228.4 142.99Z" fill="#353CDD"/>
<path fill-rule="evenodd" clip-rule="evenodd" d="M28.3295 171.722C45.7785 154.778 69.1431 145.301 93.465 145.301C117.787 145.301 141.151 154.778 158.601 171.722C176.05 188.665 186.21 211.741 186.925 236.053C186.928 236.175 186.93 236.297 186.93 236.42V317.42C186.93 324.324 181.334 329.92 174.43 329.92C167.526 329.92 161.93 324.324 161.93 317.42V236.611C161.363 218.865 153.926 202.03 141.185 189.657C128.401 177.244 111.284 170.301 93.465 170.301C75.6463 170.301 58.5289 177.244 45.7454 189.657C33.0039 202.03 25.5675 218.865 25 236.611V317.42C25 324.324 19.4036 329.92 12.5 329.92C5.59644 329.92 0 324.324 0 317.42V236.42C0 236.297 0.00180054 236.175 0.00540161 236.053C0.720319 211.741 10.8804 188.665 28.3295 171.722Z" fill="#353CDD"/>
<path fill-rule="evenodd" clip-rule="evenodd" d="M605.353 233.582C603.763 271.358 633.098 303.271 670.874 304.861C708.65 306.45 740.562 277.116 742.152 239.34C743.742 201.564 714.407 169.652 676.631 168.062C638.855 166.472 606.943 195.806 605.353 233.582ZM669.823 329.838C618.252 327.668 578.205 284.102 580.375 232.531C582.546 180.96 626.112 140.913 677.683 143.084C729.254 145.254 769.3 188.82 767.13 240.391C764.96 291.962 721.394 332.009 669.823 329.838Z" fill="#353CDD"/>
<path d="M808.64 115C816.09 115 822.13 108.96 822.13 101.51C822.13 94.0597 816.09 88.02 808.64 88.02C801.19 88.02 795.15 94.0597 795.15 101.51C795.15 108.96 801.19 115 808.64 115Z" fill="#353CDD"/>
<path d="M228.4 115C235.85 115 241.89 108.96 241.89 101.51C241.89 94.0597 235.85 88.02 228.4 88.02C220.95 88.02 214.91 94.0597 214.91 101.51C214.91 108.96 220.95 115 228.4 115Z" fill="#353CDD"/>
<path d="M565.75 330.9C573.2 330.9 579.24 324.86 579.24 317.41C579.24 309.96 573.2 303.92 565.75 303.92C558.3 303.92 552.26 309.96 552.26 317.41C552.26 324.86 558.3 330.9 565.75 330.9Z" fill="#353CDD"/>
<path d="M415 170.393C427.856 170.393 440.423 174.205 451.112 181.347C461.801 188.489 470.133 198.641 475.052 210.518C479.972 222.395 481.259 235.465 478.751 248.074C476.243 260.682 470.052 272.264 460.962 281.355C451.872 290.445 440.29 296.636 427.681 299.144C415.072 301.652 402.003 300.365 390.126 295.445C378.248 290.525 368.097 282.194 360.954 271.505C353.812 260.816 350 248.248 350 235.393C350.026 218.162 356.883 201.644 369.067 189.46C381.251 177.276 397.769 170.419 415 170.393V170.393ZM415 140.393C396.211 140.393 377.843 145.964 362.221 156.403C346.598 166.842 334.422 181.679 327.231 199.038C320.041 216.397 318.16 235.498 321.825 253.926C325.491 272.354 334.539 289.282 347.825 302.568C361.111 315.854 378.038 324.902 396.466 328.567C414.895 332.233 433.996 330.352 451.355 323.161C468.714 315.971 483.551 303.795 493.99 288.172C504.428 272.549 510 254.182 510 235.393C510 210.197 499.991 186.034 482.175 168.218C464.359 150.402 440.196 140.393 415 140.393Z" fill="url(#paint0_linear_1386_158)"/>
<path d="M483.37 393.713C477.853 393.72 472.389 392.637 467.29 390.529C462.192 388.42 457.56 385.325 453.66 381.423L450.77 378.533C448.035 375.706 446.519 371.919 446.55 367.986C446.58 364.053 448.154 360.289 450.933 357.505C453.711 354.721 457.472 353.14 461.405 353.102C465.338 353.064 469.128 354.573 471.96 357.303L474.88 360.223C476.947 362.295 479.7 363.54 482.621 363.724C485.542 363.908 488.429 363.019 490.74 361.223C495.69 357.362 499.04 351.81 500.148 345.631C501.255 339.452 500.041 333.082 496.74 327.743C481.558 303.163 475.501 274.027 479.63 245.433C480.981 236.07 480.305 226.526 477.645 217.448C474.986 208.37 470.406 199.969 464.216 192.816C458.026 185.663 450.371 179.923 441.769 175.987C433.167 172.051 423.82 170.01 414.36 170.003H413.48C393.995 169.567 375.104 163.21 359.319 151.778C343.533 140.346 331.602 124.38 325.11 106.003C324.453 104.145 324.169 102.176 324.273 100.209C324.377 98.2416 324.868 96.314 325.718 94.5362C326.567 92.7584 327.758 91.1653 329.222 89.8479C330.687 88.5304 332.397 87.5143 334.255 86.8577C336.112 86.2011 338.081 85.9168 340.049 86.021C342.016 86.1252 343.944 86.616 345.721 87.4651C347.499 88.3143 349.092 89.5054 350.41 90.9703C351.727 92.4351 352.743 94.1452 353.4 96.0027C357.886 108.584 366.069 119.517 376.875 127.369C387.681 135.22 400.608 139.624 413.96 140.003H414.3C428.067 140.004 441.673 142.967 454.194 148.69C466.715 154.413 477.859 162.761 486.87 173.17C495.881 183.579 502.547 195.804 506.417 209.016C510.287 222.228 511.27 236.117 509.3 249.743C506.181 271.362 510.761 293.389 522.24 311.973C529.436 323.587 532.089 337.45 529.69 350.901C527.291 364.352 520.008 376.443 509.24 384.853C501.85 390.615 492.741 393.735 483.37 393.713Z" fill="url(#paint1_linear_1386_158)"/>
<defs>
<linearGradient id="paint0_linear_1386_158" x1="346" y1="298" x2="530" y2="140" gradientUnits="userSpaceOnUse">
<stop offset="0.271789" stop-color="#353CDD"/>
<stop offset="0.498542" stop-color="#24272F"/>
</linearGradient>
<linearGradient id="paint1_linear_1386_158" x1="370" y1="140" x2="468.619" y2="146.975" gradientUnits="userSpaceOnUse">
<stop stop-color="#FF6900"/>
<stop offset="1" stop-color="#353CDD"/>
</linearGradient>
</defs>
</svg>
